<svg width="430" height="438" viewBox="0 0 430 438" fill="none" xmlns="http://www.w3.org/2000/svg">
<g clip-path="url(#clip0_206_602)">
<rect width="430" height="438" fill="#1E1E1E"/>
<path d="M38.4062 163.957C39.403 167.91 38.9131 160.637 40.8644 151.751C42.8157 142.864 46.1693 146.463 46.1693 146.463" stroke="white" stroke-width="0.319332" stroke-linecap="round" stroke-linejoin="round"/>
<path d="M37.7969 154.876L43.9211 152.367" stroke="white" stroke-width="0.319332" stroke-linecap="round" stroke-linejoin="round"/>
<path d="M48.9779 149.352C48.9779 149.352 45.3202 156.954 50.8363 160.147" stroke="white" stroke-width="0.319332" stroke-linecap="round" stroke-linejoin="round"/>
<path d="M54.1797 147.219C54.1797 147.219 60.2279 150.598 56.4435 157.845" stroke="white" stroke-width="0.319332" stroke-linecap="round" stroke-linejoin="round"/>
<path d="M50.0391 151.922L54.3725 155.081" stroke="white" stroke-width="0.319332" stroke-linecap="round" stroke-linejoin="round"/>
<path d="M53.4342 150.531L50.0469 155.929" stroke="white" stroke-width="0.319332" stroke-linecap="round" stroke-linejoin="round"/>
<path d="M72.892 231.43C73.7163 226.407 70.3129 221.667 65.2902 220.843C60.2676 220.019 55.5277 223.422 54.7034 228.445C53.8792 233.467 57.2826 238.207 62.3052 239.032C67.3278 239.856 72.0677 236.452 72.892 231.43Z" stroke="white" stroke-width="0.319332" stroke-linecap="round" stroke-linejoin="round"/>
<path d="M78.3619 243.558C83.8918 242.424 87.4553 237.022 86.3212 231.492C85.1871 225.962 79.7848 222.398 74.2549 223.532C68.725 224.667 65.1616 230.069 66.2957 235.599C67.4298 241.129 72.8321 244.692 78.3619 243.558Z" stroke="white" stroke-width="0.319332" stroke-linecap="round" stroke-linejoin="round"/>
<path d="M72.1936 226.133L67.9531 227.645" stroke="white" stroke-width="0.319332" stroke-linecap="round" stroke-linejoin="round"/>
<path d="M72.7864 227.875L66.6875 230.08" stroke="white" stroke-width="0.319332" stroke-linecap="round" stroke-linejoin="round"/>
<path d="M73.0116 229.992L66.2031 232.611" stroke="white" stroke-width="0.319332" stroke-linecap="round" stroke-linejoin="round"/>
<path d="M72.529 232.867L66.3203 235.705" stroke="white" stroke-width="0.319332" stroke-linecap="round" stroke-linejoin="round"/>
<path d="M71.4323 235.086L66.7188 237.046" stroke="white" stroke-width="0.319332" stroke-linecap="round" stroke-linejoin="round"/>
<path d="M68.2497 215.892C67.9878 215.047 64.9975 214.523 64.8708 216.736C64.7441 218.95 68.0216 217.108 68.9508 215.892C68.9508 215.892 67.2613 218.164 67.9709 218.612" stroke="white" stroke-width="0.319332" stroke-linecap="round" stroke-linejoin="round"/>
<path d="M84.8087 218.648L82.1562 224.164C82.1562 224.164 83.4825 221.402 84.9016 221.63C86.6502 221.943 85.4845 224.806 83.3727 223.751" stroke="white" stroke-width="0.319332" stroke-linecap="round" stroke-linejoin="round"/>
<path d="M373.453 308.703L377.618 312.64" stroke="white" stroke-width="0.319332" stroke-linecap="round" stroke-linejoin="round"/>
<path d="M377.622 307.672L374.133 312.884" stroke="white" stroke-width="0.319332" stroke-linecap="round" stroke-linejoin="round"/>
<path d="M381.719 309.179L385.892 307.625" stroke="white" stroke-width="0.319332" stroke-linecap="round" stroke-linejoin="round"/>
<path d="M387.891 303.273L390.425 305.512" stroke="white" stroke-width="0.319332" stroke-linecap="round" stroke-linejoin="round"/>
<path d="M392.366 300.578L389.156 311.593" stroke="white" stroke-width="0.319332" stroke-linecap="round" stroke-linejoin="round"/>
<path d="M197.977 246.837L209.186 239.125L224.028 240.164L224.957 258.984L214.06 266.773L200.612 265.793L197.977 246.837Z" stroke="white" stroke-width="0.319332" stroke-linecap="round" stroke-linejoin="round"/>
<path d="M200.609 265.79L211.464 257.977L224.954 258.982" stroke="white" stroke-width="0.319332" stroke-linecap="round" stroke-linejoin="round"/>
<path d="M211.46 257.979L209.18 239.125" stroke="white" stroke-width="0.319332" stroke-linecap="round" stroke-linejoin="round"/>
<path d="M197.977 246.83L212.785 248.544L224.028 240.156" stroke="white" stroke-width="0.319332" stroke-linecap="round" stroke-linejoin="round"/>
<path d="M212.781 248.555L214.057 266.775" stroke="white" stroke-width="0.319332" stroke-linecap="round" stroke-linejoin="round"/>
<path d="M328.803 183.609L323.836 199.042L339.294 196.956L328.803 183.609Z" stroke="white" stroke-width="0.319332" stroke-linecap="round" stroke-linejoin="round"/>
<path d="M328.805 183.609L331.567 197.911" stroke="white" stroke-width="0.319332" stroke-linecap="round" stroke-linejoin="round"/>
<path d="M331.125 195.623L332.933 195.336L333.355 197.76" stroke="white" stroke-width="0.319332" stroke-linecap="round" stroke-linejoin="round"/>
<path d="M134.133 324.836L141.854 328.629" stroke="white" stroke-width="0.319332" stroke-linecap="round" stroke-linejoin="round"/>
<path d="M139.362 321.938L137.148 330.005" stroke="white" stroke-width="0.319332" stroke-linecap="round" stroke-linejoin="round"/>
<path d="M140.43 318.004C140.556 317.873 140.712 317.774 140.884 317.714C141.056 317.654 141.24 317.635 141.421 317.658C141.601 317.682 141.774 317.748 141.925 317.851C142.075 317.953 142.2 318.09 142.288 318.249C143.065 319.466 141.545 322.017 141.545 322.017L144.645 320.834" stroke="white" stroke-width="0.319332" stroke-linecap="round" stroke-linejoin="round"/>
<path d="M194.745 59.1172C202.119 63.2648 193.672 73.4015 193.672 79.3145C193.672 85.2276 202.119 84.3829 206.343 86.0723C208.032 86.0723 211.411 86.0723 211.318 90.3635" stroke="white" stroke-width="0.319332" stroke-linecap="round" stroke-linejoin="round"/>
<path d="M351.745 25.1172C359.119 29.2648 350.672 39.4015 350.672 45.3145C350.672 51.2276 359.119 50.3829 363.343 52.0723C365.032 52.0723 368.411 52.0723 368.318 56.3635" stroke="white" stroke-width="0.319332" stroke-linecap="round" stroke-linejoin="round"/>
<path d="M186.531 64.4922C187.815 71.4781 195.823 69.003 200.74 70.5995C209.187 73.3449 204.499 82.0624 201.981 87.3335C200.469 90.4759 198.966 94.8853 201.669 97.8672" stroke="white" stroke-width="0.319332" stroke-linecap="round" stroke-linejoin="round"/>
<path d="M343.523 30.4922C344.807 37.4781 352.815 35.003 357.732 36.5995C366.179 39.3449 361.491 48.0624 358.973 53.3335C357.461 56.4759 355.958 60.8853 358.661 63.8672" stroke="white" stroke-width="0.319332" stroke-linecap="round" stroke-linejoin="round"/>
<path d="M187.609 67.2053L196.403 59.8984" stroke="white" stroke-width="0.319332" stroke-linecap="round" stroke-linejoin="round"/>
<path d="M344.609 33.2053L353.403 25.8984" stroke="white" stroke-width="0.319332" stroke-linecap="round" stroke-linejoin="round"/>
<path d="M191.055 69.3891L197.677 63.8984" stroke="white" stroke-width="0.319332" stroke-linecap="round" stroke-linejoin="round"/>
<path d="M348.055 35.3891L354.677 29.8984" stroke="white" stroke-width="0.319332" stroke-linecap="round" stroke-linejoin="round"/>
<path d="M194.945 74.9551L200.537 70.5625" stroke="white" stroke-width="0.319332" stroke-linecap="round" stroke-linejoin="round"/>
<path d="M351.945 40.9551L357.537 36.5625" stroke="white" stroke-width="0.319332" stroke-linecap="round" stroke-linejoin="round"/>
<path d="M193.789 81.52L204.72 73.6641" stroke="white" stroke-width="0.319332" stroke-linecap="round" stroke-linejoin="round"/>
<path d="M350.789 47.52L361.72 39.6641" stroke="white" stroke-width="0.319332" stroke-linecap="round" stroke-linejoin="round"/>
<path d="M197.984 84.5843L205.604 78.9922" stroke="white" stroke-width="0.319332" stroke-linecap="round" stroke-linejoin="round"/>
<path d="M354.984 50.5843L362.604 44.9922" stroke="white" stroke-width="0.319332" stroke-linecap="round" stroke-linejoin="round"/>
<path d="M201.227 96.4655L210.747 88.7109" stroke="white" stroke-width="0.319332" stroke-linecap="round" stroke-linejoin="round"/>
<path d="M358.227 62.4655L367.747 54.7109" stroke="white" stroke-width="0.319332" stroke-linecap="round" stroke-linejoin="round"/>
<path d="M201.461 90.375L207.67 86.0078" stroke="white" stroke-width="0.319332" stroke-linecap="round" stroke-linejoin="round"/>
<path d="M358.461 56.375L364.67 52.0078" stroke="white" stroke-width="0.319332" stroke-linecap="round" stroke-linejoin="round"/>
<path d="M77.163 329.044C86.2335 325.416 90.6455 315.122 87.0176 306.051C83.3896 296.981 73.0956 292.569 64.0251 296.197C54.9546 299.825 50.5426 310.119 54.1705 319.189C57.7984 328.26 68.0925 332.672 77.163 329.044Z" stroke="white" stroke-width="0.319332" stroke-linecap="round" stroke-linejoin="round"/>
<path d="M75.0378 295.51C81.2043 288.27 86.45 284.174 88.4689 285.508C91.5437 287.527 86.0276 301.313 76.1528 316.29C66.278 331.267 55.7781 341.775 52.7033 339.748C50.676 338.422 52.3823 331.985 56.6059 323.462" stroke="white" stroke-width="0.319332" stroke-linecap="round" stroke-linejoin="round"/>
<path d="M53.2826 316.254C44.6833 313.779 39.1926 310.89 39.5389 308.584C40.0373 304.935 54.896 304.09 72.6436 306.751C90.3913 309.412 104.346 314.455 103.814 318.087C103.434 320.621 96.2114 321.778 85.948 321.39" stroke="white" stroke-width="0.319332" stroke-linecap="round" stroke-linejoin="round"/>
<path d="M55.5395 303.441C49.0521 291.733 45.8083 282.602 48.0046 281.174C50.8936 279.307 62.0608 291.421 72.9493 308.205C83.8378 324.99 90.3168 340.161 87.4363 342.037C85.5272 343.27 79.9943 338.387 73.3125 330.075" stroke="white" stroke-width="0.319332" stroke-linecap="round" stroke-linejoin="round"/>
<path d="M251.069 181.029H261.02L265.995 172.413L261.02 163.797H251.069L246.094 172.413L251.069 181.029Z" stroke="white" stroke-width="0.319332" stroke-linecap="round" stroke-linejoin="round"/>
<path d="M249.629 199.937L244.654 191.32H234.703" stroke="white" stroke-width="0.319332" stroke-linecap="round" stroke-linejoin="round"/>
<path d="M236.038 172.413H245.989L250.964 163.796L245.989 155.172H236.038L231.062 163.796L236.038 172.413Z" stroke="white" stroke-width="0.319332" stroke-linecap="round" stroke-linejoin="round"/>
<path d="M251.069 163.795H261.02L265.995 155.171L261.02 146.555H251.069L246.094 155.171L251.069 163.795Z" stroke="white" stroke-width="0.319332" stroke-linecap="round" stroke-linejoin="round"/>
<path d="M266.008 155.406H276.964" stroke="white" stroke-width="0.319332" stroke-linecap="round" stroke-linejoin="round"/>
<path d="M250.966 181.031L244.555 191.32" stroke="white" stroke-width="0.319332" stroke-linecap="round" stroke-linejoin="round"/>
<path d="M236.034 155.172L230.18 145.703" stroke="white" stroke-width="0.319332" stroke-linecap="round" stroke-linejoin="round"/>
<path d="M306.609 121.211C307.757 117.331 310.149 113.937 313.417 111.552C316.685 109.167 320.646 107.923 324.691 108.012C328.736 108.102 332.639 109.519 335.798 112.046C338.957 114.574 341.197 118.07 342.172 121.996" stroke="white" stroke-width="0.319332" stroke-linecap="round" stroke-linejoin="round"/>
<path d="M322.172 144.719C317.678 144.205 313.53 142.055 310.519 138.679C307.507 135.303 305.843 130.938 305.844 126.414" stroke="white" stroke-width="0.319332" stroke-linecap="round" stroke-linejoin="round"/>
<path d="M342.712 126.414C342.712 131.299 340.772 135.984 337.319 139.438C333.866 142.893 329.182 144.835 324.297 144.837" stroke="white" stroke-width="0.319332" stroke-linecap="round" stroke-linejoin="round"/>
<path d="M343.757 114.734C349.518 113.999 353.378 114.396 353.978 116.12C355.169 119.549 342.844 126.941 326.448 132.634C310.052 138.327 295.802 140.152 294.602 136.714C293.969 134.881 297.196 131.916 302.838 128.681" stroke="white" stroke-width="0.319332" stroke-linecap="round" stroke-linejoin="round"/>
<path d="M244.554 102.117L246.32 105.69L250.264 106.265L247.409 109.052L248.085 112.98L244.554 111.122L241.023 112.98L241.699 109.052L238.844 106.265L242.789 105.69L244.554 102.117Z" stroke="white" stroke-width="0.319332" stroke-linecap="round" stroke-linejoin="round"/>
<path d="M119.833 92.5931C119.83 95.77 118.568 98.8163 116.322 101.063C114.077 103.311 111.031 104.575 107.854 104.58C107.466 104.58 107.086 104.563 106.714 104.529C104.402 104.31 102.204 103.424 100.386 101.978C98.5681 100.533 97.2094 98.5905 96.4748 96.3874C95.7402 94.1843 95.6615 91.8152 96.2481 89.5682C96.8347 87.3211 98.0615 85.2929 99.7792 83.73C101.497 82.1671 103.632 81.1368 105.924 80.7645C108.216 80.3921 110.568 80.6937 112.692 81.6325C114.816 82.5713 116.621 84.107 117.889 86.0528C119.157 87.9986 119.832 90.2708 119.833 92.5931Z" stroke="white" stroke-width="0.319332" stroke-linecap="round" stroke-linejoin="round"/>
<path d="M117.92 94.764C117.922 95.1319 117.814 95.492 117.611 95.7988C117.408 96.1055 117.118 96.345 116.779 96.4869C116.439 96.6289 116.065 96.6669 115.704 96.5962C115.343 96.5254 115.011 96.3491 114.75 96.0895C114.49 95.83 114.312 95.4988 114.239 95.1381C114.167 94.7774 114.203 94.4033 114.344 94.0632C114.484 93.7232 114.722 93.4324 115.028 93.2279C115.334 93.0233 115.694 92.9141 116.061 92.9141C116.553 92.9141 117.024 93.1087 117.373 93.4554C117.721 93.8021 117.918 94.2726 117.92 94.764Z" stroke="white" stroke-width="0.319332" stroke-linecap="round" stroke-linejoin="round"/>
<path d="M101.237 99.4691C101.237 99.9094 101.141 100.344 100.954 100.743C100.767 101.142 100.494 101.494 100.155 101.775C98.5801 100.475 97.3669 98.7903 96.6328 96.8842C97.0976 96.5988 97.6332 96.4495 98.1787 96.4534C98.5782 96.4478 98.9749 96.5217 99.3457 96.6707C99.7164 96.8198 100.054 97.041 100.338 97.3216C100.623 97.6022 100.849 97.9365 101.003 98.3052C101.157 98.6739 101.237 99.0695 101.237 99.4691Z" stroke="white" stroke-width="0.319332" stroke-linecap="round" stroke-linejoin="round"/>
<path d="M116.061 101.346C113.846 103.444 110.91 104.611 107.859 104.606C107.47 104.606 107.09 104.59 106.719 104.556C106.651 104.231 106.617 103.9 106.617 103.567C106.618 102.444 106.997 101.355 107.695 100.474C108.392 99.5943 109.367 98.9755 110.46 98.7184C111.553 98.4612 112.701 98.5808 113.718 99.0577C114.734 99.5346 115.56 100.341 116.061 101.346Z" stroke="white" stroke-width="0.319332" stroke-linecap="round" stroke-linejoin="round"/>
<path d="M104.949 87.8357C106.47 87.8357 107.703 86.6028 107.703 85.0819C107.703 83.561 106.47 82.3281 104.949 82.3281C103.428 82.3281 102.195 83.561 102.195 85.0819C102.195 86.6028 103.428 87.8357 104.949 87.8357Z" stroke="white" stroke-width="0.319332" stroke-linecap="round" stroke-linejoin="round"/>
<path d="M107.504 92.9083C107.504 93.1606 107.429 93.4072 107.289 93.617C107.149 93.8268 106.95 93.9902 106.717 94.0868C106.484 94.1833 106.227 94.2086 105.98 94.1594C105.732 94.1102 105.505 93.9887 105.327 93.8103C105.148 93.6319 105.027 93.4046 104.978 93.1572C104.928 92.9098 104.954 92.6533 105.05 92.4202C105.147 92.1871 105.31 91.9879 105.52 91.8478C105.73 91.7076 105.976 91.6328 106.229 91.6328C106.396 91.6328 106.562 91.6658 106.717 91.7299C106.872 91.794 107.012 91.888 107.131 92.0064C107.249 92.1249 107.343 92.2655 107.407 92.4202C107.471 92.575 107.504 92.7408 107.504 92.9083Z" stroke="white" stroke-width="0.319332" stroke-linecap="round" stroke-linejoin="round"/>
<path d="M117.582 85.5975C117.247 85.7074 116.896 85.7617 116.543 85.758C116.082 85.758 115.626 85.667 115.2 85.4903C114.774 85.3136 114.387 85.0547 114.062 84.7282C113.736 84.4018 113.478 84.0144 113.302 83.5881C113.126 83.1618 113.037 82.705 113.038 82.2439C113.029 82.0977 113.029 81.951 113.038 81.8047C114.847 82.6673 116.41 83.9717 117.582 85.5975Z" stroke="white" stroke-width="0.319332" stroke-linecap="round" stroke-linejoin="round"/>
<path d="M393.001 231.684L394.293 228.778L392.198 227.629C392.276 227.118 392.29 226.598 392.241 226.083L394.386 225.036L393.246 222.071L390.948 222.73C390.64 222.316 390.283 221.942 389.884 221.615L390.67 219.351L387.764 218.058L386.606 220.153C386.093 220.09 385.574 220.09 385.061 220.153L384.022 218.008L381.048 219.148L381.715 221.437C381.301 221.751 380.924 222.111 380.592 222.51L378.337 221.725L377.078 224.588L379.173 225.745C379.096 226.257 379.081 226.776 379.131 227.291L376.977 228.33L378.117 231.304L380.415 230.636C380.725 231.051 381.082 231.428 381.479 231.76L380.702 234.015L383.608 235.308L384.756 233.213C385.268 233.29 385.787 233.304 386.302 233.255L387.35 235.409L390.315 234.269L389.656 231.971C390.068 231.661 390.442 231.304 390.771 230.907L393.001 231.684ZM384.165 230.062C383.498 229.765 382.934 229.278 382.544 228.66C382.154 228.043 381.956 227.324 381.975 226.595C381.994 225.865 382.228 225.157 382.649 224.561C383.07 223.964 383.658 223.506 384.34 223.244C385.021 222.982 385.765 222.927 386.477 223.088C387.189 223.248 387.837 223.616 388.34 224.146C388.843 224.675 389.178 225.341 389.303 226.06C389.427 226.779 389.335 227.52 389.039 228.187C388.64 229.08 387.903 229.78 386.99 230.131C386.076 230.483 385.06 230.458 384.165 230.062Z" stroke="white" stroke-width="0.319332" stroke-linecap="round" stroke-linejoin="round"/>
<path d="M377.56 246.598L379.317 242.653L376.479 241.082C376.58 240.388 376.597 239.685 376.53 238.987L379.452 237.568L377.923 233.539L374.806 234.443C374.39 233.878 373.905 233.367 373.362 232.922L374.426 229.847L370.448 228.065L368.885 230.903C368.191 230.804 367.488 230.784 366.79 230.844L365.371 227.93L361.333 229.484L362.237 232.593C361.676 233.017 361.166 233.504 360.716 234.045L357.65 233.015L355.893 236.96L358.731 238.531C358.63 239.225 358.613 239.928 358.681 240.626L355.758 242.045L357.312 246.074L360.429 245.179C360.848 245.742 361.333 246.252 361.874 246.699L360.809 249.766L364.763 251.523L366.325 248.676C367.019 248.78 367.722 248.8 368.42 248.735L369.839 251.65L373.877 250.104L372.973 246.987C373.534 246.565 374.044 246.081 374.494 245.542L377.56 246.598ZM365.565 244.393C364.658 243.989 363.892 243.325 363.362 242.485C362.833 241.646 362.565 240.668 362.592 239.675C362.618 238.683 362.939 237.721 363.512 236.911C364.086 236.1 364.887 235.479 365.814 235.124C366.741 234.769 367.753 234.697 368.721 234.918C369.689 235.138 370.57 235.64 371.252 236.361C371.934 237.082 372.387 237.99 372.554 238.968C372.721 239.947 372.593 240.953 372.188 241.859C371.92 242.461 371.536 243.004 371.058 243.457C370.58 243.91 370.017 244.264 369.402 244.5C368.787 244.735 368.131 244.847 367.473 244.829C366.815 244.81 366.166 244.662 365.565 244.393Z" stroke="white" stroke-width="0.319332" stroke-linecap="round" stroke-linejoin="round"/>
<path d="M202.453 209.163C201.296 211.356 199.989 213.467 198.542 215.482C191.037 225.916 180.009 233.282 167.496 236.218C154.982 239.154 141.829 237.463 130.466 231.455C129.292 230.839 128.143 230.18 127.045 229.487C125.947 228.794 124.874 228.085 123.843 227.325C122.593 226.421 121.394 225.458 120.245 224.452C120.171 224.397 120.103 224.335 120.042 224.267C112.556 217.642 107.085 209.045 104.253 199.459C101.421 189.872 101.343 179.682 104.028 170.054C106.712 160.425 112.051 151.745 119.434 145.006C126.817 138.268 135.947 133.742 145.781 131.945C155.614 130.149 165.754 131.155 175.043 134.849C184.332 138.542 192.394 144.773 198.31 152.831C204.225 160.889 207.754 170.449 208.494 180.417C209.235 190.386 207.156 200.362 202.496 209.205L202.453 209.163Z" fill="#EBEBEB"/>
<mask id="mask0_206_602" style="mask-type:luminance" maskUnits="userSpaceOnUse" x="102" y="131" width="107" height="107">
<path d="M202.453 209.171C201.296 211.364 199.989 213.475 198.542 215.489C191.037 225.924 180.009 233.29 167.496 236.226C154.982 239.162 141.829 237.47 130.466 231.463C129.292 230.846 128.143 230.188 127.045 229.495C125.947 228.802 124.874 228.093 123.843 227.332C122.593 226.428 121.394 225.466 120.245 224.46C120.171 224.405 120.103 224.343 120.042 224.274C112.556 217.65 107.085 209.053 104.253 199.467C101.421 189.88 101.343 179.69 104.028 170.061C106.712 160.432 112.051 151.753 119.434 145.014C126.817 138.276 135.947 133.75 145.781 131.953C155.614 130.157 165.754 131.163 175.043 134.856C184.332 138.55 192.394 144.781 198.31 152.839C204.225 160.897 207.754 170.457 208.494 180.425C209.235 190.394 207.156 200.37 202.496 209.213L202.453 209.171Z" fill="white"/>
</mask>
<g mask="url(#mask0_206_602)">
<g opacity="0.6">
<path d="M202.461 209.147C201.303 211.34 199.997 213.452 198.55 215.466L197.519 214.621L195.745 213.683L193.879 212.704L194.191 210.448L194.09 208.412C193.98 206.377 195.45 208.041 196.624 207.424C197.54 206.77 198.28 205.899 198.778 204.89C198.778 204.89 199.623 202.178 199.344 201.089C198.889 199.833 198.353 198.608 197.739 197.423L194.715 201.646L192.181 201.452L189.782 200.185L189.469 196.848L188.236 196.206L187.72 194.289L181.056 192.422L180.295 191.087C179.535 189.752 176.469 189.068 176.469 189.068L177.221 187.328L178.403 185.385C179.594 183.442 180.828 186.669 180.828 186.669L182.238 187.404L184.857 185.208L185.55 182.057L189.815 182.302C189.732 181.876 189.797 181.433 190 181.049C190.203 180.665 190.531 180.362 190.93 180.19C192.35 179.633 191.724 176.549 191.184 175.409C190.643 174.269 188.65 175.189 188.65 175.189C188.65 175.189 186.479 171.887 186.183 170.569C185.887 169.251 190.322 169.724 192.223 168.398C194.123 167.072 193.473 164.436 192.544 164.377C191.615 164.318 194.36 158.379 199.64 160.01C201.109 160.466 202.039 160.305 202.613 159.799C206.574 167.425 208.629 175.898 208.603 184.492C208.576 193.086 206.469 201.545 202.461 209.147Z" fill="white"/>
<path d="M165.518 186.3L163.71 188.572C163.71 188.572 162.941 186.739 161.843 187.728L160.154 189.231L158.929 192.661L156.733 194.08L155.39 193.379L154.122 192.703L152.746 191.977L151.428 194.511L150.355 196.538C150.878 197.533 151.528 198.456 152.289 199.284L154.621 203.397L157.459 204.833C158.643 204.877 159.821 205.019 160.982 205.256L162.933 206.278L162.24 210.501C162.24 210.501 160.77 212.892 159.791 212.233L158.802 211.583L157.197 217.141L157.13 220.199C157.13 220.199 156.175 220.596 155.212 220.917C154.249 221.238 154.857 221.069 152.839 221.694C150.82 222.319 150.98 222.294 149.341 222.758C147.944 223.247 146.6 223.876 145.329 224.634L145.473 227.573L141.612 228.139L139.45 226.99L139.982 225.132L140.235 222.226L139.94 220.055L139.01 218.138L141.612 215.781L141.038 214.303L139.559 211.363L136.434 213.053L134.829 213.897L131.197 212.267L130.8 210.062L129.583 206.1L128.451 203.634L126.441 200.914L125.934 198.574L127.066 196.428L127.666 195.296L125.816 192.805L125.309 191.031L122.192 188.201C122.192 188.201 123.096 188.142 122.893 186.883C122.69 185.624 124.675 183.504 124.675 183.504C125.799 184.095 129.169 186.444 129.169 186.444L132.117 186.849C132.117 186.849 132.709 186.849 133.283 185.734C133.954 184.709 134.742 183.765 135.631 182.921C135.631 182.921 134.271 178.199 135.243 177.566C136.214 176.932 137.203 173.84 137.203 173.84L137.98 172.362C137.98 172.362 136.147 171.56 135.8 170.588C135.454 169.617 130.935 170.909 130.935 170.909L127.818 173.072L125.36 174.972L124.295 176.991C124.295 176.991 122.124 174.381 122.116 175.842C121.95 177.341 121.622 178.816 121.136 180.243C121.136 180.243 121.584 180.48 120.992 181.612C120.401 182.744 119.759 182.685 118.458 182.845C116.762 182.862 115.068 182.746 113.39 182.499C113.39 182.499 112.545 185.624 113.128 186.165L113.702 186.689C113.702 186.689 112.799 188.961 111.903 188.488L109.724 187.339L106.674 188.572L103.295 192.306L102.544 192.154C100.473 178.264 103.969 164.118 112.272 152.792C120.575 141.466 133.014 133.876 146.883 131.672C147.077 132.517 147.289 133.311 147.289 133.311L146.444 137.484L145.363 139.545L144.434 141.31L143.124 143.794L146.478 146.885L145.76 150.543L143.944 151.683L143.42 154.429L146.537 160.519L147.382 162.91C146.86 164.054 146.603 165.302 146.63 166.559C146.63 166.559 147.01 168.84 148.674 169.744C150.338 170.647 152.526 171.712 152.526 171.712L152.349 175.091L151.597 175.935L152.847 179.576C156.657 181.071 156.293 182.322 156.657 181.071L157.028 179.83L159.622 178.892L162.925 182.837C163.309 182.832 163.688 182.923 164.028 183.103C164.367 183.284 164.656 183.546 164.867 183.867C165.83 185.084 167.334 184.028 165.518 186.3Z" fill="white"/>
<path d="M120.749 215.715C120.842 216.914 119.322 218.418 119.322 218.418L120.564 219.068L120.944 222.447L120.006 224.238C113.362 218.368 108.294 210.928 105.266 202.596L105.941 199.014L108.923 198.592C108.923 198.592 111.593 196.818 112.775 197.291C113.958 197.764 115.039 200.67 115.039 200.67C115.039 200.67 115.884 204.59 115.774 204.514H115.723H115.791L117.007 205.156L117.354 206.701L115.664 209.911H112.944C112.944 209.911 112.404 209.624 112.353 211.035C112.397 211.524 112.546 211.999 112.789 212.426C113.032 212.853 113.365 213.222 113.764 213.51L116.703 212.758L117.489 209.717L120.378 209.151C120.378 209.151 119.964 211.018 120.64 211.373L121.324 211.736L121.729 213.966C121.427 214.146 121.177 214.402 121.005 214.709C120.833 215.016 120.745 215.363 120.749 215.715Z" fill="white"/>
<path d="M134.715 220.506C134.453 219.779 134.344 219.146 132.544 218.2C130.745 217.254 130.855 217.592 130.145 218.377C129.84 218.781 129.423 219.087 128.945 219.257C128.468 219.426 127.951 219.452 127.459 219.332C126.277 219.07 126.893 220.404 126.893 220.404L127.18 224.011L123.844 227.306C124.874 228.066 125.941 228.787 127.045 229.468L127.755 227.289L133.296 228.911C132.122 228.564 132.815 226.96 132.815 226.96L131.632 226.334C131.632 226.334 134.977 221.215 134.715 220.506Z" fill="white"/>
<path d="M169.622 201.747L167.806 199.914L165.728 200.565L164.884 202.254L164.25 203.47L165.095 205.16L166.784 207.212L167.747 205.371C167.747 205.371 170.425 205.371 171.827 203.825C173.229 202.279 169.622 201.747 169.622 201.747Z" fill="white"/>
<path d="M164.281 193.481L167.66 195.255L167.795 194.461C167.971 193.825 168.282 193.234 168.708 192.729L166.123 189.992L164.281 193.481Z" fill="white"/>
<path d="M163.136 232.8L162.165 231.373L161.033 230.781H157.578L155.61 234.515C155.61 234.515 153.726 234.262 151.251 234.042C148.776 233.822 149.384 234.844 149.384 234.844L148.742 237.193C154.987 237.962 161.318 237.621 167.444 236.187C166.732 235.691 165.993 235.234 165.231 234.819L163.136 232.8Z" fill="white"/>
</g>
</g>
<path d="M202.453 209.163C201.296 211.356 199.989 213.467 198.542 215.482C191.037 225.916 180.009 233.282 167.496 236.218C154.982 239.154 141.829 237.463 130.466 231.455C129.292 230.839 128.143 230.18 127.045 229.487C125.947 228.794 124.874 228.085 123.843 227.325C122.593 226.421 121.394 225.458 120.245 224.452C120.171 224.397 120.103 224.335 120.042 224.267C112.556 217.642 107.085 209.045 104.253 199.459C101.421 189.872 101.343 179.682 104.028 170.054C106.712 160.425 112.051 151.745 119.434 145.006C126.817 138.268 135.947 133.742 145.781 131.945C155.614 130.149 165.754 131.155 175.043 134.849C184.332 138.542 192.394 144.773 198.31 152.831C204.225 160.889 207.754 170.449 208.494 180.417C209.235 190.386 207.156 200.362 202.496 209.205L202.453 209.163Z" stroke="#171717" stroke-width="0.319332" stroke-linecap="round" stroke-linejoin="round"/>
<path d="M167.437 236.203C161.31 237.637 154.979 237.977 148.734 237.208L149.376 234.86C149.376 234.86 148.768 233.838 151.243 234.058C153.718 234.277 155.602 234.531 155.602 234.531L157.57 230.797H161.025L162.157 231.388L163.128 232.816L165.223 234.835C165.986 235.25 166.725 235.707 167.437 236.203Z" stroke="#171717" stroke-width="0.319332" stroke-linecap="round" stroke-linejoin="round"/>
<path d="M202.639 159.822C202.065 160.329 201.135 160.49 199.665 160.034C194.386 158.403 191.649 164.333 192.57 164.401C193.491 164.468 194.141 167.138 192.249 168.422C190.357 169.706 185.913 169.266 186.209 170.593C186.505 171.919 188.676 175.213 188.676 175.213C188.676 175.213 190.619 174.301 191.168 175.433C191.717 176.565 192.342 179.656 190.923 180.214C190.523 180.385 190.195 180.689 189.992 181.073C189.789 181.457 189.724 181.899 189.808 182.326L185.542 182.081L184.849 185.232L182.23 187.428L180.82 186.693C180.82 186.693 179.586 183.466 178.395 185.409L177.213 187.352L176.461 189.092C176.461 189.092 179.527 189.776 180.288 191.111L181.048 192.446L187.713 194.312L188.228 196.23L189.461 196.872L189.774 200.209L192.257 201.509L194.791 201.704L197.816 197.48C198.43 198.666 198.966 199.891 199.421 201.146C199.716 202.236 198.855 204.947 198.855 204.947C198.356 205.957 197.616 206.827 196.701 207.482C195.493 208.098 194.014 206.434 194.166 208.47L194.268 210.506L193.955 212.761L195.822 213.741L197.596 214.679L198.626 215.523" stroke="#171717" stroke-width="0.319332" stroke-linecap="round" stroke-linejoin="round"/>
<path d="M102.609 192.171L103.361 192.323L106.74 188.59L109.79 187.356L111.969 188.505C112.864 188.978 113.768 186.706 113.768 186.706L113.194 186.182C112.611 185.641 113.456 182.516 113.456 182.516C115.133 182.764 116.828 182.879 118.524 182.862C119.859 182.702 120.492 182.753 121.058 181.629C121.624 180.506 121.202 180.261 121.202 180.261C121.687 178.834 122.016 177.358 122.182 175.86C122.182 174.398 124.361 177.008 124.361 177.008L125.425 174.989L127.807 173.097L130.925 170.935C130.925 170.935 135.444 169.634 135.79 170.614C136.136 171.594 137.97 172.388 137.97 172.388L137.192 173.866C137.192 173.866 136.196 176.941 135.233 177.591C134.27 178.242 135.621 182.947 135.621 182.947C134.732 183.79 133.944 184.734 133.273 185.76C132.682 186.892 132.107 186.875 132.107 186.875L129.159 186.469C129.159 186.469 125.78 184.121 124.665 183.53C124.665 183.53 122.68 185.65 122.883 186.909C123.085 188.167 122.182 188.226 122.182 188.226L125.299 191.056L125.805 192.83L127.655 195.322L127.056 196.454L125.924 198.6L126.431 200.939L128.441 203.659L129.581 206.118L130.815 210.096L131.212 212.301L134.844 213.931L136.449 213.087L139.574 211.397L141.053 214.337L141.627 215.815L139.025 218.172L139.955 220.089L140.25 222.26L139.997 225.166L139.465 227.024L141.627 228.173L145.488 227.616L145.344 224.668C146.615 223.91 147.959 223.281 149.356 222.792C150.995 222.328 150.835 222.353 152.854 221.728C154.872 221.103 154.256 221.272 155.227 220.951C156.199 220.63 157.145 220.233 157.145 220.233L157.212 217.175L158.817 211.617L159.806 212.267C160.785 212.926 162.255 210.535 162.255 210.535L162.948 206.312L160.954 205.273C159.794 205.036 158.616 204.894 157.432 204.85L154.653 203.389L152.321 199.275C151.56 198.448 150.91 197.525 150.387 196.53L151.46 194.503L152.778 191.968L154.154 192.695L155.421 193.371L156.765 194.072L158.961 192.653L160.186 189.223L161.875 187.719C162.973 186.723 163.742 188.564 163.742 188.564L165.55 186.292C167.366 184.02 165.862 185.076 164.933 183.91C164.722 183.589 164.433 183.326 164.094 183.146C163.754 182.966 163.375 182.874 162.99 182.879L159.687 178.934L157.06 179.931L156.689 181.173C156.325 182.423 156.689 181.173 152.879 179.678L151.629 176.037L152.38 175.192L152.558 171.813C152.558 171.813 150.37 170.741 148.706 169.845C147.042 168.95 146.662 166.661 146.662 166.661C146.635 165.403 146.892 164.156 147.414 163.011L146.569 160.621L143.452 154.53L143.975 151.785L145.792 150.645L146.51 146.987L143.249 143.895L144.558 141.412L145.488 139.646L146.569 137.585L147.414 133.412C147.414 133.412 147.202 132.635 147.008 131.773" stroke="#171717" stroke-width="0.319332" stroke-linecap="round" stroke-linejoin="round"/>
<path d="M120.289 224.446C120.223 224.371 120.15 224.303 120.069 224.244L121.007 222.453L120.627 219.074L119.385 218.424C119.385 218.424 120.905 216.92 120.813 215.72C120.796 215.363 120.876 215.007 121.044 214.69C121.212 214.374 121.462 214.108 121.767 213.921L121.362 211.691L120.677 211.328C120.002 210.973 120.415 209.106 120.415 209.106L117.527 209.672L116.741 212.713L113.801 213.465C113.403 213.178 113.07 212.808 112.827 212.381C112.583 211.954 112.435 211.48 112.391 210.99C112.441 209.579 112.982 209.867 112.982 209.867H115.702L117.391 206.657L117.045 205.111L115.829 204.469" stroke="#171717" stroke-width="0.319332" stroke-linecap="round" stroke-linejoin="round"/>
<path d="M115.751 204.463C115.886 204.539 115.016 200.619 115.016 200.619C115.016 200.619 113.934 197.756 112.752 197.24C111.569 196.725 108.9 198.541 108.9 198.541L105.918 198.964L105.242 202.545" stroke="#171717" stroke-width="0.319332" stroke-linecap="round" stroke-linejoin="round"/>
<path d="M127.755 227.297L127.045 229.476C125.919 228.789 124.852 228.068 123.844 227.314L127.18 224.019L126.893 220.412C126.893 220.412 126.277 219.078 127.459 219.339C127.951 219.46 128.468 219.434 128.945 219.264C129.423 219.095 129.84 218.789 130.145 218.385C130.838 217.599 130.754 217.261 132.544 218.208C134.335 219.154 134.453 219.787 134.715 220.514C134.977 221.24 131.632 226.368 131.632 226.368L132.815 226.993C132.815 226.993 132.122 228.598 133.296 228.944L127.755 227.297Z" stroke="#171717" stroke-width="0.319332" stroke-linecap="round" stroke-linejoin="round"/>
<path d="M165.723 200.58L167.801 199.93L169.617 201.763C169.617 201.763 173.207 202.227 171.805 203.79C170.403 205.353 167.725 205.336 167.725 205.336L166.745 207.177L165.056 205.125L164.211 203.435L164.844 202.219L165.723 200.58Z" stroke="#171717" stroke-width="0.319332" stroke-linecap="round" stroke-linejoin="round"/>
<path d="M168.708 192.745C168.282 193.25 167.971 193.84 167.795 194.476L167.66 195.27L164.281 193.497L166.123 190.008L168.708 192.745Z" stroke="#171717" stroke-width="0.319332" stroke-linecap="round" stroke-linejoin="round"/>
<path d="M352.019 392.002C347.491 395.769 312.613 419.709 262.842 415.848C260.164 393.193 249.951 300.121 261.566 285.524C261.566 285.524 289.746 272.085 315.704 277.727C341.663 283.37 351.766 288.776 353.616 293.456C355.018 296.996 353.016 362.901 352.019 392.002Z" fill="#171717"/>
<path d="M314.843 287.669C299.892 300.619 280.632 297.882 281.054 287.94C281.122 286.385 282.786 284.459 282.786 284.459L282.203 283.564L279.669 279.737C277.819 276.874 275.505 273.275 273.891 270.657C272.54 268.426 306.236 247.697 306.236 259.616C306.236 276.409 314.48 279.568 314.48 279.568C317.589 280.819 320.486 282.795 314.843 287.669Z" fill="white" stroke="#171717" stroke-width="0.319332" stroke-linecap="round" stroke-linejoin="round"/>
<path d="M324.292 313.32C324.292 313.32 321.276 323.66 322.704 326.625" stroke="white" stroke-width="0.319332" stroke-linecap="round" stroke-linejoin="round"/>
<path d="M320.774 283.297C320.774 293.273 291.014 303.047 282.297 293.037" stroke="white" stroke-width="0.319332" stroke-linecap="round" stroke-linejoin="round"/>
<path d="M296.291 271.781C296.291 271.781 294.298 279.299 285.006 285.17C284.562 284.409 283.847 283.845 283.004 283.59C282.724 283.545 282.439 283.545 282.159 283.59L279.625 279.764C284.431 276.301 296.291 271.781 296.291 271.781Z" fill="#171717"/>
<path d="M300.467 262.538C300.467 262.538 300.366 269.955 298.778 271.467C286.994 282.769 275.472 283.665 273.571 280.683C260.774 260.612 263.798 255.341 262.497 251.903C260.191 245.872 257.361 236.022 258.611 230.058C261.399 216.737 286.487 206.406 299.699 219.803C306.034 226.215 308.036 240.128 306.701 251.717" fill="white"/>
<path d="M300.467 262.538C300.467 262.538 300.366 269.955 298.778 271.467C286.994 282.769 275.472 283.665 273.571 280.683C260.774 260.612 263.798 255.341 262.497 251.903C260.191 245.872 257.361 236.022 258.611 230.058C261.399 216.737 286.487 206.406 299.699 219.803C306.034 226.215 308.036 240.128 306.701 251.717" stroke="#171717" stroke-width="0.319332" stroke-linecap="round" stroke-linejoin="round"/>
<path d="M264.111 245.714C264.111 245.714 260.588 244.134 259.828 246.018" stroke="#171717" stroke-width="0.319332" stroke-linecap="round" stroke-linejoin="round"/>
<path d="M272.648 245.82C272.648 245.82 279.972 242.753 283.267 246.478" stroke="#171717" stroke-width="0.319332" stroke-linecap="round" stroke-linejoin="round"/>
<path d="M280.784 251.019C280.902 252.117 280.37 253.072 279.584 253.165C278.799 253.258 278.072 252.422 277.954 251.323C277.836 250.225 278.368 249.262 279.153 249.178C279.939 249.093 280.632 249.921 280.784 251.019Z" fill="#171717"/>
<path d="M266.424 251.347C266.551 252.445 266.01 253.408 265.225 253.492C264.439 253.577 263.713 252.758 263.595 251.659C263.476 250.561 264.008 249.598 264.794 249.514C265.58 249.429 266.289 250.249 266.424 251.347Z" fill="#171717"/>
<path d="M266.776 248.461C267.798 250.108 267.241 252.921 265.889 256.781C264.538 260.642 265.729 262.036 270.915 262.424" fill="white"/>
<path d="M266.776 248.461C267.798 250.108 267.241 252.921 265.889 256.781C264.538 260.642 265.729 262.036 270.915 262.424" stroke="#171717" stroke-width="0.319332" stroke-linecap="round" stroke-linejoin="round"/>
<path d="M270.922 269.104C270.922 269.104 277.68 268.487 280.771 266.789" stroke="#171717" stroke-width="0.319332" stroke-linecap="round" stroke-linejoin="round"/>
<path d="M313.73 230.806C313.73 225.789 308.78 215.492 300.097 214.334C295.104 209.114 287.992 207.196 279.359 209.182C259.406 213.76 253.333 233.459 252.463 236.72C252.378 237.024 252.336 237.193 252.336 237.193L257.675 235.841L255.377 240.327L258.173 242.176L257.531 242.886L260.775 246.011L259.761 240.301C260.386 236.618 264.627 231.465 264.627 231.465C263.079 233.471 262.114 235.865 261.839 238.384C263.529 234 273.665 229.936 273.665 229.936C270.379 232.606 268.597 237.826 268.597 237.826C271.722 233.974 279.046 231.482 283.734 230.156C285.314 233.966 287.823 237.944 291.404 240.149C294.783 242.227 294.665 246.518 294.665 246.518C298.301 249.045 300.979 252.723 302.268 256.959L306.356 262.551C306.356 262.551 313.73 253.504 313.73 230.806Z" fill="#171717"/>
<path d="M296.522 247.951C295.153 245.02 300.12 237.08 303.643 238.06C305.619 238.617 308.204 242.224 308.711 246.009C309.218 249.793 306.54 256.99 303.685 258.553C301.869 259.566 300.374 256.804 300.374 256.804" fill="white"/>
<path d="M296.522 247.951C295.153 245.02 300.12 237.08 303.643 238.06C305.619 238.617 308.204 242.224 308.711 246.009C309.218 249.793 306.54 256.99 303.685 258.553C301.869 259.566 300.374 256.804 300.374 256.804" stroke="#171717" stroke-width="0.319332" stroke-linecap="round" stroke-linejoin="round"/>
<path d="M81.0156 391.325L176.461 369.008L375.545 392.001L324.288 427.057L81.0156 391.325Z" fill="white"/>
<path d="M81.0156 391.325L176.461 369.008L375.545 392.001" fill="white"/>
<path d="M81.0156 391.325L176.461 369.008L375.545 392.001" stroke="#171717" stroke-width="0.319332" stroke-linecap="round" stroke-linejoin="round"/>
<path d="M163.609 395.807L202.247 378.727L251.097 381.252L229.371 399.828L163.609 395.807Z" fill="white" stroke="#171717" stroke-width="0.319332" stroke-linecap="round" stroke-linejoin="round"/>
<path d="M263.453 284.68C251.061 289.748 248.392 301.143 227.333 346.176C227.333 346.176 217.982 348.093 212.973 359.455C207.964 370.816 216.352 379.787 226.007 379.483C226.007 379.483 229.884 382.862 237.833 382.516C245.782 382.169 280.914 328.411 280.914 328.411L263.453 284.68Z" fill="#171717"/>
<path d="M231.023 348.82C236.565 353.753 239.749 360.993 238.06 369.018" stroke="white" stroke-width="0.319332" stroke-linecap="round" stroke-linejoin="round"/>
<path d="M236.367 351.188C236.367 351.188 243.176 352.674 244.232 361.392" stroke="white" stroke-width="0.319332" stroke-linecap="round" stroke-linejoin="round"/>
<path d="M256.288 325.68C253.071 317.743 251.96 309.11 253.061 300.617" stroke="white" stroke-width="0.319332" stroke-linecap="round" stroke-linejoin="round"/>
<path d="M255.323 314.203C254.808 317.751 258.474 336.639 258.449 356.498" stroke="white" stroke-width="0.319332" stroke-linecap="round" stroke-linejoin="round"/>
<path d="M347.96 288.414C363.461 296.202 365.302 320.167 350.68 348.82C340.349 369.043 326.09 398.904 317.068 400.906C308.047 402.908 299.245 397.29 299.245 397.29C299.245 397.29 291.642 396.936 289.344 391.529C283.06 376.755 299.033 358.087 305.284 362.555C305.284 362.555 325.355 318.909 329.013 316.155" fill="#171717"/>
<path d="M287.907 382.546C285.855 372.35 301.904 360.321 305.283 362.551C305.283 362.551 317.202 363.218 318.985 371.463" stroke="white" stroke-width="0.319332" stroke-linecap="round" stroke-linejoin="round"/>
<path d="M331.57 384.721C338.548 372.413 350.678 348.82 350.678 348.82" stroke="white" stroke-width="0.319332" stroke-linecap="round" stroke-linejoin="round"/>
<path d="M305.281 362.555C305.281 362.555 313.636 357.554 319.878 362.285" stroke="white" stroke-width="0.319332" stroke-linecap="round" stroke-linejoin="round"/>
<path d="M308.133 356.492C308.133 356.492 312.745 346.356 317.425 337.064C322.105 327.772 332.816 314.011 337.267 313.344" stroke="white" stroke-width="0.319332" stroke-linecap="round" stroke-linejoin="round"/>
<path d="M220.103 374.707C219.099 374.658 218.119 374.39 217.23 373.922C202.87 366.429 191.703 354.045 184.979 345.159C182.365 341.762 179.958 338.211 177.773 334.524L181.22 319.758C181.22 319.758 184.464 328.205 197.498 336.509C210.532 344.812 226.016 347.549 231.025 355.937C235.46 363.244 227.646 375.07 220.103 374.707Z" fill="white"/>
<mask id="mask1_206_602" style="mask-type:luminance" maskUnits="userSpaceOnUse" x="177" y="319" width="56" height="56">
<path d="M220.103 374.699C219.099 374.65 218.119 374.382 217.23 373.914C202.87 366.421 191.703 354.037 184.979 345.151C182.365 341.754 179.958 338.203 177.773 334.516L181.22 319.75C181.22 319.75 184.464 328.197 197.498 336.501C210.532 344.805 226.016 347.541 231.025 355.93C235.46 363.236 227.646 375.063 220.103 374.699Z" fill="white"/>
</mask>
<g mask="url(#mask1_206_602)">
<path opacity="0.4" d="M220.103 374.699C219.942 373.631 219.659 372.585 219.258 371.582C216.242 364.03 197.996 349.02 197.996 349.02C193.654 348.885 188.882 347.077 184.996 345.151C182.376 341.755 179.964 338.203 177.773 334.516L181.22 319.75C181.22 319.75 184.464 328.197 197.498 336.501C210.532 344.805 226.016 347.541 231.025 355.93C235.46 363.236 227.646 375.063 220.103 374.699Z" fill="#EBEBEB"/>
</g>
<path d="M220.103 374.707C219.099 374.658 218.119 374.39 217.23 373.922C202.87 366.429 191.703 354.045 184.979 345.159C182.365 341.762 179.958 338.211 177.773 334.524L181.22 319.758C181.22 319.758 184.464 328.205 197.498 336.509C210.532 344.812 226.016 347.549 231.025 355.937C235.46 363.244 227.646 375.07 220.103 374.707Z" stroke="#171717" stroke-width="0.319332" stroke-linecap="round" stroke-linejoin="round"/>
<path d="M187.574 333.625C187.574 333.625 185.792 341.498 181.095 339.732C178.561 338.778 173.679 331.209 172.758 327.391L187.574 333.625Z" fill="white" stroke="#171717" stroke-width="0.319332" stroke-linecap="round" stroke-linejoin="round"/>
<path d="M166.875 285.149L170.71 283.172C170.71 283.172 181.548 283.265 188.272 288.73C194.379 293.697 197.479 301.477 197.479 301.477C197.479 301.477 221.208 288.375 245.443 295.893L255.326 350.978L209.888 353.951L181.531 327.013L166.875 285.149Z" fill="white" stroke="#171717" stroke-width="0.319332" stroke-linecap="round" stroke-linejoin="round"/>
<path d="M258.453 353.183C258.453 353.183 253.123 353.022 245.994 353.259C235.215 353.597 220.323 354.813 213.514 358.775L213.193 358.665L206.959 356.486L206.832 356.3C205.683 354.61 196.417 341.306 183.18 335.891L164.461 283.586C164.461 283.586 183.89 284.431 194.508 301.984L199.838 303.91C199.838 303.91 231.557 294.517 249.313 297.896L258.453 353.183Z" fill="#EBEBEB"/>
<mask id="mask2_206_602" style="mask-type:luminance" maskUnits="userSpaceOnUse" x="164" y="283" width="95" height="76">
<path d="M258.453 353.175C258.453 353.175 253.123 353.014 245.994 353.251C235.215 353.589 220.323 354.805 213.514 358.767L213.193 358.657L206.959 356.478L206.832 356.292C205.683 354.602 196.417 341.298 183.18 335.883L164.461 283.578C164.461 283.578 183.89 284.423 194.508 301.976L199.838 303.902C199.838 303.902 231.557 294.509 249.313 297.888L258.453 353.175Z" fill="white"/>
</mask>
<g mask="url(#mask2_206_602)">
<path opacity="0.3" d="M206.832 356.3C205.683 354.61 196.417 341.306 183.18 335.891L164.461 283.586C164.461 283.586 183.89 284.431 194.508 301.984L206.832 356.3Z" fill="black" fill-opacity="0.7"/>
<path opacity="0.3" d="M245.994 353.243C235.215 353.581 220.323 354.798 213.514 358.759L213.193 358.65L200.742 305.787C200.742 305.787 210.93 303.498 214.063 304.655C214.055 304.672 234.768 319.953 245.994 353.243Z" fill="black" fill-opacity="0.7"/>
</g>
<path d="M258.453 353.183C258.453 353.183 253.123 353.022 245.994 353.259C235.215 353.597 220.323 354.813 213.514 358.775L213.193 358.665L206.959 356.486L206.832 356.3C205.683 354.61 196.417 341.306 183.18 335.891L164.461 283.586C164.461 283.586 183.89 284.431 194.508 301.984L199.838 303.91C199.838 303.91 231.557 294.517 249.313 297.896L258.453 353.183Z" stroke="#171717" stroke-width="0.319332" stroke-linecap="round" stroke-linejoin="round"/>
<path d="M199.852 303.914L212.075 354.623" stroke="#171717" stroke-width="0.319332" stroke-linecap="round" stroke-linejoin="round"/>
<path d="M206.955 356.495L195.078 305.82" stroke="#171717" stroke-width="0.319332" stroke-linecap="round" stroke-linejoin="round"/>
<path d="M176.784 334.56C174.072 333.808 168.607 317.513 171.107 310.494C171.107 310.494 174.081 305.332 175.331 304.978C177.223 304.429 184.859 304.589 184.488 305.873C183.643 308.847 177.781 308.796 177.781 308.796L175.88 312.276L175.956 314.194C175.956 314.194 178.718 312.183 179.732 312.242C180.256 312.242 182.959 313.594 185.104 314.726C186.937 315.697 188.061 316.229 187.638 317.108C186.278 320.031 180.492 317.953 180.492 317.953L178.313 321.239C178.313 321.239 180.416 321.602 181.337 321.703C182.258 321.805 189.902 326.898 189.674 327.532C188.77 330.015 181.523 327.329 181.523 327.329L180.239 328.402C180.239 328.402 185.577 329.779 186.152 329.982C186.997 330.294 190.249 332.794 190.198 333.082C189.809 335.278 185.324 333.665 185.324 333.665L181.396 333.504C180.798 334.032 180.078 334.403 179.301 334.585" fill="white"/>
<path d="M176.784 334.56C174.072 333.808 168.607 317.513 171.107 310.494C171.107 310.494 174.081 305.332 175.331 304.978C177.223 304.429 184.859 304.589 184.488 305.873C183.643 308.847 177.781 308.796 177.781 308.796L175.88 312.276L175.956 314.194C175.956 314.194 178.718 312.183 179.732 312.242C180.256 312.242 182.959 313.594 185.104 314.726C186.937 315.697 188.061 316.229 187.638 317.108C186.278 320.031 180.492 317.953 180.492 317.953L178.313 321.239C178.313 321.239 180.416 321.602 181.337 321.703C182.258 321.805 189.902 326.898 189.674 327.532C188.77 330.015 181.523 327.329 181.523 327.329L180.239 328.402C180.239 328.402 185.577 329.779 186.152 329.982C186.997 330.294 190.249 332.794 190.198 333.082C189.809 335.278 185.324 333.665 185.324 333.665L181.396 333.504C180.798 334.032 180.078 334.403 179.301 334.585" stroke="#171717" stroke-width="0.319332" stroke-linecap="round" stroke-linejoin="round"/>
<path d="M175.919 314.203C175.919 314.203 173.384 316.332 172.734 316.948C172.084 317.565 172.244 319.525 172.244 319.525" stroke="#171717" stroke-width="0.319332" stroke-linecap="round" stroke-linejoin="round"/>
<path d="M174.086 323.852C174.086 325.997 175.522 327.298 176.181 327.991C176.84 328.683 175.125 330.567 177.026 331.919" stroke="#171717" stroke-width="0.319332" stroke-linecap="round" stroke-linejoin="round"/>
<path d="M299.21 391.852C293.846 393.314 288.018 383.887 280.905 373.598C276.208 366.84 270.954 359.634 264.914 355.014C264.433 354.651 263.943 354.296 263.453 353.958L266.984 336.219C274.316 340.062 278.861 346.22 286.472 352.547C298.72 362.743 309.575 369.002 312.582 373.513C315.589 378.024 308.401 389.343 299.21 391.852Z" fill="white"/>
<mask id="mask3_206_602" style="mask-type:luminance" maskUnits="userSpaceOnUse" x="263" y="336" width="51" height="56">
<path d="M299.21 391.852C293.846 393.314 288.018 383.887 280.905 373.598C276.208 366.84 270.954 359.634 264.914 355.014C264.433 354.651 263.943 354.296 263.453 353.958L266.984 336.219C274.316 340.062 278.861 346.22 286.472 352.547C298.72 362.743 309.575 369.002 312.582 373.513C315.589 378.024 308.401 389.343 299.21 391.852Z" fill="white"/>
</mask>
<g mask="url(#mask3_206_602)">
<path opacity="0.4" d="M280.905 373.579C276.208 366.822 270.954 359.616 264.914 354.995C265.71 355.036 266.506 354.915 267.254 354.641C267.254 354.641 276.799 362.387 280.905 373.579Z" fill="#EBEBEB"/>
</g>
<path d="M299.21 391.852C293.846 393.314 288.018 383.887 280.905 373.598C276.208 366.84 270.954 359.634 264.914 355.014C264.433 354.651 263.943 354.296 263.453 353.958L266.984 336.219C274.316 340.062 278.861 346.22 286.472 352.547C298.72 362.743 309.575 369.002 312.582 373.513C315.589 378.024 308.401 389.343 299.21 391.852Z" stroke="#171717" stroke-width="0.319332" stroke-linecap="round" stroke-linejoin="round"/>
<path d="M268.956 353.253C268.589 353.909 267.984 354.399 267.266 354.622C267.075 354.697 266.881 354.761 266.683 354.816H266.523C260.855 356.294 248.099 353.22 248.099 353.22C248.099 353.22 239.745 349.249 239.238 348.312C238.885 347.569 238.572 346.807 238.301 346.031L238.073 345.364C238.073 345.364 235.065 343.674 234.694 342.356C234.322 341.039 233.689 340.667 235.538 340.43C237.388 340.194 247.365 340.43 247.365 340.43L236.51 336.004C236.51 336.004 229.321 332.38 228.654 331.105C227.987 329.829 227.15 328.984 230.825 329.491C234.499 329.998 242.524 332.33 242.524 332.33L248.851 333.673L242.567 330.995C242.567 330.995 230.2 329.5 232.54 325.656H239.559C243.536 325.832 247.491 326.335 251.385 327.16C253.43 327.785 266.945 336.181 266.945 336.181" fill="white"/>
<mask id="mask4_206_602" style="mask-type:luminance" maskUnits="userSpaceOnUse" x="228" y="325" width="41" height="31">
<path d="M268.956 353.269C268.589 353.925 267.984 354.415 267.266 354.637C267.075 354.712 266.881 354.777 266.683 354.832H266.523C260.855 356.31 248.099 353.235 248.099 353.235C248.099 353.235 239.745 349.265 239.238 348.327C238.885 347.584 238.572 346.823 238.301 346.047L238.073 345.379C238.073 345.379 235.065 343.69 234.694 342.372C234.322 341.054 233.689 340.683 235.538 340.446C237.388 340.21 247.365 340.446 247.365 340.446L236.51 336.02C236.51 336.02 229.321 332.396 228.654 331.12C227.987 329.845 227.15 329 230.825 329.507C234.499 330.014 242.524 332.345 242.524 332.345L248.851 333.688L242.567 331.011C242.567 331.011 230.2 329.515 232.54 325.672H239.559C243.536 325.847 247.491 326.35 251.385 327.175C253.43 327.801 266.945 336.197 266.945 336.197" fill="white"/>
</mask>
<g mask="url(#mask4_206_602)">
<path opacity="0.4" d="M266.503 354.863C260.835 356.342 248.08 353.267 248.08 353.267C248.08 353.267 239.726 349.297 239.219 348.359C238.866 347.616 238.553 346.855 238.281 346.078L248.536 347.202C248.177 347.848 247.989 348.574 247.989 349.313C247.989 350.052 248.177 350.779 248.536 351.425C249.677 353.478 262.668 355.556 266.503 354.863Z" fill="#EBEBEB"/>
</g>
<path d="M268.956 353.253C268.589 353.909 267.984 354.399 267.266 354.622C267.075 354.697 266.881 354.761 266.683 354.816H266.523C260.855 356.294 248.099 353.22 248.099 353.22C248.099 353.22 239.745 349.249 239.238 348.312C238.885 347.569 238.572 346.807 238.301 346.031L238.073 345.364C238.073 345.364 235.065 343.674 234.694 342.356C234.322 341.039 233.689 340.667 235.538 340.43C237.388 340.194 247.365 340.43 247.365 340.43L236.51 336.004C236.51 336.004 229.321 332.38 228.654 331.105C227.987 329.829 227.15 328.984 230.825 329.491C234.499 329.998 242.524 332.33 242.524 332.33L248.851 333.673L242.567 330.995C242.567 330.995 230.2 329.5 232.54 325.656H239.559C243.536 325.832 247.491 326.335 251.385 327.16C253.43 327.785 266.945 336.181 266.945 336.181" stroke="#171717" stroke-width="0.319332" stroke-linecap="round" stroke-linejoin="round"/>
<path d="M238.055 345.406L250.396 347.222" stroke="#171717" stroke-width="0.319332" stroke-linecap="round" stroke-linejoin="round"/>
<path d="M115.031 383.199L145.965 392.491L202.562 379.575C202.562 379.575 167.995 369.76 167.674 370.005C167.353 370.249 115.031 383.199 115.031 383.199Z" fill="#EBEBEB"/>
<mask id="mask5_206_602" style="mask-type:luminance" maskUnits="userSpaceOnUse" x="115" y="369" width="88" height="24">
<path d="M115.031 383.183L145.965 392.475L202.562 379.56C202.562 379.56 167.995 369.744 167.674 369.989C167.353 370.234 115.031 383.183 115.031 383.183Z" fill="white"/>
</mask>
<g mask="url(#mask5_206_602)">
<path opacity="0.3" d="M115.031 383.183L145.965 392.475L202.562 379.56C202.562 379.56 167.995 369.744 167.674 369.989C167.353 370.234 115.031 383.183 115.031 383.183Z" fill="black" fill-opacity="0.7"/>
</g>
<path d="M115.031 383.199L145.965 392.491L202.562 379.575C202.562 379.575 167.995 369.76 167.674 370.005C167.353 370.249 115.031 383.199 115.031 383.199Z" stroke="#171717" stroke-width="0.319332" stroke-linecap="round" stroke-linejoin="round"/>
<path d="M115.478 372.29C113.307 372.442 112.766 380.264 115.03 383.187L165.004 372.814L169.008 363.336L115.478 372.29Z" fill="#EBEBEB"/>
<mask id="mask6_206_602" style="mask-type:luminance" maskUnits="userSpaceOnUse" x="113" y="363" width="57" height="21">
<path d="M115.478 372.282C113.307 372.434 112.766 380.256 115.03 383.179L165.004 372.806L169.008 363.328L115.478 372.282Z" fill="white"/>
</mask>
<g mask="url(#mask6_206_602)">
<path opacity="0.3" d="M115.478 372.282C113.307 372.434 112.766 380.256 115.03 383.179L165.004 372.806L169.008 363.328L115.478 372.282Z" fill="black" fill-opacity="0.7"/>
</g>
<path d="M115.478 372.29C113.307 372.442 112.766 380.264 115.03 383.187L165.004 372.814L169.008 363.336L115.478 372.29Z" stroke="#171717" stroke-width="0.319332" stroke-linecap="round" stroke-linejoin="round"/>
<path d="M200.139 372.191C200.139 372.191 199.396 376.305 199.877 378.839L145.908 391.054L117.458 382.674C117.458 382.674 114.501 377.445 117.078 373.382L169.062 364.555L200.139 372.191Z" fill="white" stroke="#171717" stroke-width="0.319332" stroke-linecap="round" stroke-linejoin="round"/>
<path d="M115.477 372.29L169.007 363.336L202.247 371.758L146.343 382.9L115.477 372.29Z" fill="#EBEBEB" stroke="#171717" stroke-width="0.319332" stroke-linecap="round" stroke-linejoin="round"/>
<path d="M117.383 377.302L145.69 385.732L192.023 376.406" stroke="#171717" stroke-width="0.319332" stroke-linecap="round" stroke-linejoin="round"/>
<path d="M199.728 377.258L149.906 387.884" stroke="#171717" stroke-width="0.319332" stroke-linecap="round" stroke-linejoin="round"/>
<path d="M118.047 380.617C118.478 380.659 139.385 387.096 139.385 387.096" stroke="#171717" stroke-width="0.319332" stroke-linecap="round" stroke-linejoin="round"/>
<path d="M195.656 375.314L199.618 374.672" stroke="#171717" stroke-width="0.319332" stroke-linecap="round" stroke-linejoin="round"/>
<path d="M144.767 388.661L142.664 388.188" stroke="#171717" stroke-width="0.319332" stroke-linecap="round" stroke-linejoin="round"/>
<path d="M117.076 373.383C118.184 374.659 118.825 376.274 118.894 377.962C118.963 379.651 118.456 381.312 117.456 382.675C116.53 381.316 116.004 379.726 115.937 378.083C115.87 376.441 116.264 374.812 117.076 373.383Z" fill="#171717"/>
<mask id="mask7_206_602" style="mask-type:luminance" maskUnits="userSpaceOnUse" x="115" y="373" width="4" height="10">
<path d="M117.076 373.367C118.184 374.643 118.825 376.258 118.894 377.947C118.963 379.635 118.456 381.297 117.456 382.659C116.53 381.301 116.004 379.71 115.937 378.068C115.87 376.425 116.264 374.797 117.076 373.367Z" fill="white"/>
</mask>
<g mask="url(#mask7_206_602)">
<path opacity="0.3" d="M117.076 373.367C118.184 374.643 118.825 376.258 118.894 377.947C118.963 379.635 118.456 381.297 117.456 382.659C116.53 381.301 116.004 379.71 115.937 378.068C115.87 376.425 116.264 374.797 117.076 373.367Z" fill="white" fill-opacity="0.7"/>
</g>
<path d="M117.076 373.383C118.184 374.659 118.825 376.274 118.894 377.962C118.963 379.651 118.456 381.312 117.456 382.675C116.53 381.316 116.004 379.726 115.937 378.083C115.87 376.441 116.264 374.812 117.076 373.383Z" stroke="#171717" stroke-width="0.319332" stroke-linecap="round" stroke-linejoin="round"/>
<path d="M232.697 385.734L286.717 387.948L281.454 406.54L215 404.006L232.697 385.734Z" fill="white"/>
<mask id="mask8_206_602" style="mask-type:luminance" maskUnits="userSpaceOnUse" x="215" y="385" width="72" height="22">
<path d="M232.697 385.727L286.717 387.94L281.454 406.532L215 403.998L232.697 385.727Z" fill="white"/>
</mask>
<g mask="url(#mask8_206_602)">
<path opacity="0.4" d="M232.697 385.727L286.717 387.94L281.454 406.532L215 403.998L232.697 385.727Z" fill="#EBEBEB"/>
</g>
<path d="M232.697 385.734L286.717 387.948L281.454 406.54L215 404.006L232.697 385.734Z" stroke="#171717" stroke-width="0.319332" stroke-linecap="round" stroke-linejoin="round"/>
</g>
<defs>
<clipPath id="clip0_206_602">
<rect width="430" height="438" fill="white"/>
</clipPath>
</defs>
</svg>
